<?xml version="1.0"?>
<svg xmlns="http://www.w3.org/2000/svg" height="512px" viewBox="0 -52 430.512 430" width="512px" class=""><g><path d="m5 69.925781h243.332031v250.675781h-243.332031zm0 0" fill="#4ea3da" data-original="#4EA3DA" class="" style="fill:#FFFFFF" data-old_color="#ffffff"/><path d="m5 69.925781h243.332031v17.5h-243.332031zm0 0" fill="#fff" data-original="#FFF" class=""/><path d="m53.585938 106.425781h155.5v72h-155.5zm0 0" fill="#fff" data-original="#FFF" class=""/><path d="m48.585938 101.425781v82h165.5v-82zm10 10h145.5v62h-145.5zm0 0" fill="#122436" data-original="#122436" class="active-path" style="fill:#D3D3D3" data-old_color="#d3d3d3"/><path d="m0 .257812v325.347657h253.332031v-325.347657zm243.332031 315.34375h-233.332031v-305.34375h233.332031zm0 0" fill="#122436" data-original="#122436" class="active-path" style="fill:#D3D3D3" data-old_color="#d3d3d3"/><path d="m291.035156 69.925781h-286.035156v-64.667969h245.335938zm0 0" fill="#ffcc34" data-original="#FFCC34" class="" style="fill:#FFFFFF" data-old_color="#ffffff"/><path d="m291.035156 69.925781h-286.035156v-64.667969h245.335938zm0 0" fill="#4ea3da" data-original="#4EA3DA" class="" style="fill:#FFFFFF" data-old_color="#ffffff"/><path d="m278.445312 69.925781h12.589844l-40.699218-64.667969h-245.335938v20h245.335938zm0 0" fill="#fff" data-original="#FFF" class=""/><path d="m295.265625 67.261719-42.171875-67.003907h-253.09375v74.664063h300.089844zm-285.265625-57.003907h237.574219l34.40625 54.667969h-271.980469zm0 0" fill="#122436" data-original="#122436" class="active-path" style="fill:#D3D3D3" data-old_color="#d3d3d3"/><path d="m5 202.269531h298.664062v32.667969h-298.664062zm0 0" fill="#ffcc34" data-original="#FFCC34" class="" style="fill:#FFFFFF" data-old_color="#ffffff"/><path d="m5 202.269531h298.664062v14h-298.664062zm0 0" fill="#fff" data-original="#FFF" class=""/><path d="m5 262.9375h298.664062v32.664062h-298.664062zm0 0" fill="#ffcc34" data-original="#FFCC34" class="" style="fill:#FFFFFF" data-old_color="#ffffff"/><path d="m5 262.9375h298.664062v14h-298.664062zm0 0" fill="#fff" data-original="#FFF" class=""/><path d="m0 197.269531v42.667969h308.664062v-42.667969zm10 10h288.664062v22.667969h-288.664062zm0 0" fill="#122436" data-original="#122436" class="active-path" style="fill:#D3D3D3" data-old_color="#d3d3d3"/><path d="m0 300.601562h308.664062v-42.664062h-308.664062zm10-32.664062h288.664062v22.664062h-288.664062zm0 0" fill="#122436" data-original="#122436" class="active-path" style="fill:#D3D3D3" data-old_color="#d3d3d3"/><path d="m88.332031 320.601562h-56v-131.84375c0-4.933593 1.300781-9.78125 3.777344-14.046874 10.789063-18.605469 37.65625-18.605469 48.445313 0 2.476562 4.269531 3.78125 9.113281 3.78125 14.046874v131.84375zm0 0" fill="#ffcc34" data-original="#FFCC34" class="" style="fill:#FFFFFF" data-old_color="#ffffff"/><path d="m84.554688 174.710938c-10.789063-18.605469-37.65625-18.605469-48.445313 0-2.476563 4.269531-3.78125 9.113281-3.78125 14.046874v20c0-4.933593 1.304687-9.78125 3.78125-14.046874 10.789063-18.605469 37.65625-18.605469 48.445313 0 2.472656 4.269531 3.777343 9.113281 3.777343 14.046874v-20c0-4.933593-1.300781-9.78125-3.777343-14.046874zm0 0" fill="#fff" data-original="#FFF" class=""/><path d="m182.332031 320.601562h-56v-131.84375c0-4.933593 1.300781-9.78125 3.777344-14.046874 10.789063-18.605469 37.65625-18.605469 48.445313 0 2.476562 4.269531 3.78125 9.113281 3.78125 14.046874v131.84375zm0 0" fill="#ffcc34" data-original="#FFCC34" class="" style="fill:#FFFFFF" data-old_color="#ffffff"/><path d="m178.554688 174.710938c-10.789063-18.605469-37.65625-18.605469-48.445313 0-2.472656 4.269531-3.78125 9.113281-3.78125 14.046874v20c0-4.933593 1.304687-9.78125 3.78125-14.046874 10.785156-18.605469 37.65625-18.605469 48.445313 0 2.472656 4.269531 3.777343 9.113281 3.777343 14.046874v-20c0-4.933593-1.300781-9.78125-3.777343-14.046874zm0 0" fill="#fff" data-original="#FFF" class=""/><path d="m276.332031 320.601562h-56v-131.84375c0-4.933593 1.300781-9.78125 3.777344-14.046874 10.789063-18.605469 37.65625-18.605469 48.445313 0 2.476562 4.269531 3.78125 9.113281 3.78125 14.046874v131.84375zm0 0" fill="#ffcc34" data-original="#FFCC34" class="" style="fill:#FFFFFF" data-old_color="#ffffff"/><path d="m272.554688 174.710938c-10.785157-18.605469-37.65625-18.605469-48.445313 0-2.472656 4.269531-3.78125 9.113281-3.78125 14.046874v20c0-4.933593 1.304687-9.78125 3.78125-14.046874 10.789063-18.605469 37.65625-18.605469 48.445313 0 2.472656 4.269531 3.777343 9.113281 3.777343 14.046874v-20c0-4.933593-1.300781-9.78125-3.777343-14.046874zm0 0" fill="#fff" data-original="#FFF" class=""/><g fill="#122436"><path d="m76.371094 159.871094c-4.972656-2.75-10.511719-4.113282-16.039063-4.113282-5.527343 0-11.066406 1.363282-16.039062 4.113282-4.972657 2.742187-9.363281 6.898437-12.511719 12.332031-2.914062 5.03125-4.453125 10.742187-4.453125 16.554687v136.847657h66v-136.847657c0-5.8125-1.535156-11.523437-4.449219-16.554687-3.148437-5.433594-7.535156-9.589844-12.507812-12.332031zm-39.039063 28.886718c0-4.054687 1.070313-8.035156 3.101563-11.539062 2.25-3.867188 5.261718-6.691406 8.699218-8.597656 3.433594-1.902344 7.3125-2.863282 11.195313-2.863282 3.886719 0 7.765625.960938 11.199219 2.863282 3.441406 1.910156 6.453125 4.730468 8.699218 8.597656 2.03125 3.507812 3.101563 7.484375 3.101563 11.539062v126.84375h-46v-126.84375zm0 0" data-original="#000000" class="" style="fill:#D3D3D3" data-old_color="#d3d3d3"/><path d="m170.371094 159.871094c-4.972656-2.75-10.507813-4.113282-16.035156-4.113282-5.53125 0-11.066407 1.363282-16.042969 4.113282-4.96875 2.742187-9.359375 6.898437-12.507813 12.332031-2.917968 5.03125-4.453125 10.742187-4.453125 16.554687v136.847657h66v-136.847657c0-5.8125-1.535156-11.523437-4.453125-16.554687-3.148437-5.433594-7.535156-9.589844-12.507812-12.332031zm-39.039063 28.886718c0-4.054687 1.070313-8.035156 3.101563-11.539062 2.25-3.867188 5.261718-6.691406 8.699218-8.597656 3.433594-1.902344 7.3125-2.863282 11.195313-2.863282 3.886719 0 7.765625.960938 11.199219 2.863282 3.4375 1.910156 6.453125 4.730468 8.699218 8.597656 2.035157 3.507812 3.101563 7.484375 3.101563 11.539062v126.84375h-46v-126.84375zm0 0" data-original="#000000" class="" style="fill:#D3D3D3" data-old_color="#d3d3d3"/><path d="m276.878906 172.203125c-3.148437-5.433594-7.535156-9.585937-12.507812-12.332031-4.972656-2.75-10.511719-4.113282-16.039063-4.113282-5.527343 0-11.066406 1.363282-16.039062 4.113282-4.972657 2.742187-9.363281 6.898437-12.511719 12.332031-2.914062 5.03125-4.453125 10.742187-4.453125 16.554687v136.847657h66v-136.847657c.003906-5.8125-1.53125-11.527343-4.449219-16.554687zm-51.546875 16.554687c0-4.054687 1.070313-8.035156 3.101563-11.539062 2.25-3.867188 5.261718-6.691406 8.699218-8.597656 3.433594-1.902344 7.3125-2.863282 11.195313-2.863282 3.886719 0 7.765625.960938 11.199219 2.863282 3.4375 1.910156 6.453125 4.730468 8.699218 8.597656 2.03125 3.507812 3.101563 7.484375 3.101563 11.539062v126.84375h-46zm0 0" data-original="#000000" class="" style="fill:#D3D3D3" data-old_color="#d3d3d3"/></g><path d="m413.011719 248.9375h-145c-6.902344 0-12.5-5.597656-12.5-12.5 0-6.90625 5.597656-12.5 12.5-12.5h145c6.902343 0 12.5 5.59375 12.5 12.5 0 6.902344-5.597657 12.5-12.5 12.5zm0 0" fill="#4ea3da" data-original="#4EA3DA" class="" style="fill:#FFFFFF" data-old_color="#ffffff"/><path d="m268.015625 236.148438h144.996094c4.6875 0 8.769531 2.578124 10.910156 6.394531 1.011719-1.804688 1.589844-3.886719 1.589844-6.105469 0-6.90625-5.597657-12.5-12.5-12.5h-144.996094c-6.90625 0-12.5 5.59375-12.5 12.5 0 2.214844.578125 4.296875 1.589844 6.105469 2.136719-3.816407 6.222656-6.394531 10.910156-6.394531zm0 0" fill="#fff" data-original="#FFF" class=""/><path d="m420.511719 320.601562h-160l12.058593-71.664062h135.882813zm0 0" fill="#ffcc34" data-original="#FFCC34" class="" style="fill:#FFFFFF" data-old_color="#ffffff"/><path d="m272.570312 265.222656h135.882813l9.320313 55.378906h2.738281l-12.058594-71.664062h-135.882813l-12.058593 71.664062h2.742187zm0 0" fill="#fff" data-original="#FFF" class=""/><path d="m321.066406 203.9375h38.890625v20h-38.890625zm0 0" fill="#4ea3da" data-original="#4EA3DA" class="" style="fill:#FFFFFF" data-old_color="#ffffff"/><path d="m321.066406 203.9375h38.890625v10.175781h-38.890625zm0 0" fill="#fff" data-original="#FFF" class=""/><path d="m352.734375 203.9375h-24.445313v-136.40625c0-6.75 5.472657-12.222656 12.222657-12.222656s12.21875 5.472656 12.21875 12.222656v136.40625zm0 0" fill="#ffcc34" data-original="#FFCC34" class="" style="fill:#FFFFFF" data-old_color="#ffffff"/><path d="m340.511719 55.308594c-6.75 0-12.21875 5.472656-12.21875 12.222656v18.320312c0-6.75 5.46875-12.222656 12.21875-12.222656s12.222656 5.472656 12.222656 12.222656v-18.320312c0-6.75-5.472656-12.222656-12.222656-12.222656zm0 0" fill="#fff" data-original="#FFF" class=""/><path d="m414.355469 253.867188c9.035156-.6875 16.15625-8.21875 16.15625-17.429688.003906-4.816406-1.964844-9.226562-5.125-12.375-3.152344-3.160156-7.558594-5.128906-12.375-5.125h-48.054688v-20h-7.222656v-131.40625c.003906-4.742188-1.933594-9.078125-5.042969-12.179688-3.097656-3.109374-7.4375-5.046874-12.179687-5.042968-4.738281-.003906-9.078125 1.933594-12.175781 5.042968-3.109376 3.101563-5.046876 7.4375-5.042969 12.179688v131.40625h-7.222657v20h-48.054687c-4.816406-.003906-9.222656 1.964844-12.375 5.125-3.160156 3.152344-5.128906 7.558594-5.125 12.375-.003906 4.816406 1.964844 9.222656 5.125 12.371094 2.855469 2.863281 6.746094 4.730468 11.035156 5.058594l-12.074219 71.734374h171.824219l-.980469-5.828124zm-81.0625-186.335938c0-2.011719.800781-3.785156 2.113281-5.109375 1.324219-1.3125 3.097656-2.113281 5.109375-2.117187 2.011719.003906 3.785156.800781 5.105469 2.117187 1.316406 1.320313 2.113281 3.097656 2.117187 5.109375v131.40625h-14.445312zm-7.226563 141.40625h28.890625v10h-28.890625zm-58.054687 35c-2.085938-.003906-3.929688-.832031-5.304688-2.199219-1.363281-1.371093-2.191406-3.214843-2.195312-5.300781.003906-2.085938.832031-3.929688 2.199219-5.304688 1.375-1.367187 3.214843-2.195312 5.304687-2.195312h144.996094c2.089843 0 3.929687.832031 5.304687 2.195312 1.363282 1.371094 2.195313 3.214844 2.195313 5.304688 0 2.085938-.832031 3.929688-2.195313 5.300781-1.371094 1.367188-3.214844 2.195313-5.304687 2.199219zm8.789062 10h127.421875l10.378906 61.664062h-18.253906v-33.332031h-10v33.335938h-15.417968v-33.335938h-10v33.335938h-15.417969v-33.335938h-10v33.335938h-15.414063v-33.335938h-10v33.335938h-15.417968v-33.335938h-10v33.335938h-18.253907zm0 0" fill="#122436" data-original="#122436" class="active-path" style="fill:#D3D3D3" data-old_color="#d3d3d3"/></g> </svg>
